<svg width="115" height="219" viewBox="0 0 115 219" fill="none" xmlns="http://www.w3.org/2000/svg">
<path d="M29.3087 54.9822L29.3094 54.9807L57.5018 1.0745L85.9234 54.9807L85.9241 54.9822L114.436 109.499L57.4998 217.924C51.4843 206.48 45.9914 196.043 40.7077 186.005C27.6274 161.154 15.8302 138.74 0.564638 109.5L29.3087 54.9822Z" stroke="white"/>
<path d="M52.5044 133.499V132.769C53.6724 132.769 54.4024 132.428 54.6944 131.747C55.0351 131.017 55.2054 130.165 55.2054 129.192V94.225C55.2054 93.7384 54.9621 93.495 54.4754 93.495C54.2807 93.495 54.0131 93.568 53.6724 93.714L45.3504 96.342V93.714L62.3594 87.801V89.772C61.5807 90.1127 60.9481 90.648 60.4614 91.378C60.0234 92.108 59.8531 92.9597 59.9504 93.933V128.9C59.9504 129.922 60.1207 130.822 60.4614 131.601C60.8021 132.38 61.5807 132.769 62.7974 132.769V133.499H52.5044Z" fill="#0C0B10"/>
</svg>
