<svg width="115" height="220" viewBox="0 0 115 220" fill="none" xmlns="http://www.w3.org/2000/svg">
<path d="M29.3087 55.9817L29.3094 55.9802L57.5018 2.07401L85.9234 55.9802L85.9241 55.9817L114.436 110.498L57.4998 218.923C51.4843 207.479 45.9914 197.043 40.7077 187.005C27.6274 162.153 15.8302 139.74 0.564638 110.5L29.3087 55.9817Z" stroke="white"/>
<path d="M43.5318 94.2594H44.1888C44.4322 94.2594 44.7242 94.1377 45.0648 93.8944C45.4542 93.6511 45.8678 93.3834 46.3058 93.0914C46.7925 92.7507 47.3522 92.3614 47.9848 91.9234C48.6662 91.4854 49.4205 91.0961 50.2478 90.7554C51.1238 90.3661 52.0972 90.0497 53.1678 89.8064C54.2385 89.5631 55.4308 89.4414 56.7448 89.4414C58.3995 89.4414 60.0055 89.6847 61.5628 90.1714C63.1202 90.6094 64.5072 91.3151 65.7238 92.2884C66.9405 93.2131 67.9138 94.4054 68.6438 95.8654C69.3738 97.3254 69.7388 99.0774 69.7388 101.121C69.7388 102.825 69.4468 104.382 68.8628 105.793C68.2788 107.205 67.4758 108.519 66.4538 109.735C65.4805 110.952 64.3612 112.12 63.0958 113.239C61.8792 114.31 60.6138 115.381 59.2998 116.451C58.0345 117.473 56.7935 118.52 55.5768 119.59C54.4088 120.661 53.3382 121.78 52.3648 122.948C51.4402 124.116 50.6615 125.382 50.0288 126.744C49.3962 128.058 49.0312 129.47 48.9338 130.978H64.1178C65.9672 130.978 67.4272 130.662 68.4978 130.029C69.5685 129.348 70.1282 128.253 70.1768 126.744H70.8338V135.066H43.8238C43.8238 132.876 44.1888 130.857 44.9188 129.007C45.6488 127.109 46.5978 125.382 47.7658 123.824C48.9338 122.218 50.2235 120.734 51.6348 119.371C53.0948 118.009 54.5305 116.695 55.9418 115.429C57.1098 114.407 58.2292 113.385 59.2998 112.363C60.4192 111.341 61.3925 110.319 62.2198 109.297C63.0958 108.227 63.7772 107.132 64.2638 106.012C64.7992 104.844 65.0668 103.628 65.0668 102.362C65.0668 100.756 64.7748 99.3207 64.1908 98.0554C63.6555 96.7901 62.9255 95.7194 62.0008 94.8434C61.1248 93.9674 60.1028 93.3104 58.9348 92.8724C57.7668 92.3857 56.5988 92.1424 55.4308 92.1424C52.9488 92.1424 50.7588 92.8967 48.8608 94.4054C46.9628 95.8654 45.4298 97.7634 44.2618 100.099H43.5318V94.2594Z" fill="#0C0B10"/>
</svg>
