<svg width="115" height="220" viewBox="0 0 115 220" fill="none" xmlns="http://www.w3.org/2000/svg">
<path d="M29.3087 55.9817L29.3094 55.9802L57.5018 2.07401L85.9234 55.9802L85.9241 55.9817L114.436 110.498L57.4998 218.923C51.4843 207.479 45.9914 197.043 40.7077 187.005C27.6274 162.153 15.8302 139.74 0.564638 110.5L29.3087 55.9817Z" stroke="white"/>
<path d="M45.0394 86.0184H45.6964C46.0857 86.0184 46.4994 85.9454 46.9374 85.7994C47.3754 85.6534 47.8621 85.483 48.3974 85.2884C49.2247 84.9964 50.2224 84.7044 51.3904 84.4124C52.5584 84.0717 53.9941 83.9014 55.6974 83.9014C57.6441 83.9014 59.3717 84.1934 60.8804 84.7774C62.4377 85.3127 63.7274 86.067 64.7494 87.0404C65.8201 87.965 66.6231 89.06 67.1584 90.3254C67.7424 91.5907 68.0344 92.9047 68.0344 94.2674C68.0344 96.1654 67.4504 97.9904 66.2824 99.7424C65.1631 101.494 63.4111 102.906 61.0264 103.976C64.3844 104.95 66.8907 106.507 68.5454 108.648C70.2001 110.79 71.0274 113.223 71.0274 115.948C71.0274 117.992 70.6381 119.89 69.8594 121.642C69.1294 123.346 68.0344 124.854 66.5744 126.168C65.1631 127.434 63.4597 128.431 61.4644 129.161C59.4691 129.891 57.2304 130.256 54.7484 130.256C52.8991 130.256 51.3661 130.086 50.1494 129.745C48.9327 129.405 47.9107 129.088 47.0834 128.796C46.5481 128.602 46.0614 128.456 45.6234 128.358C45.1854 128.212 44.7474 128.139 44.3094 128.139H43.6524V122.518H44.3824C45.6477 124.27 47.2051 125.609 49.0544 126.533C50.9524 127.409 52.8991 127.847 54.8944 127.847C56.6464 127.847 58.2281 127.555 59.6394 126.971C61.0507 126.339 62.2431 125.511 63.2164 124.489C64.2384 123.467 64.9927 122.299 65.4794 120.985C66.0147 119.671 66.2824 118.309 66.2824 116.897C66.2824 115.437 65.9904 114.026 65.4064 112.663C64.8224 111.252 63.9951 110.011 62.9244 108.94C61.8537 107.87 60.5397 107.018 58.9824 106.385C57.4737 105.753 55.7461 105.436 53.7994 105.436H50.4414V103.027H54.1644C55.6731 103.027 56.9871 102.784 58.1064 102.297C59.2744 101.811 60.2477 101.154 61.0264 100.326C61.8051 99.499 62.3891 98.5744 62.7784 97.5524C63.1677 96.5304 63.3624 95.4597 63.3624 94.3404C63.3624 93.3184 63.1677 92.3207 62.7784 91.3474C62.4377 90.374 61.9024 89.5224 61.1724 88.7924C60.4424 88.0137 59.5421 87.381 58.4714 86.8944C57.4494 86.4077 56.2571 86.1644 54.8944 86.1644C53.2397 86.1644 51.5851 86.6267 49.9304 87.5514C48.2757 88.476 46.8887 89.863 45.7694 91.7124H45.0394V86.0184Z" fill="#0C0B10"/>
</svg>
